<svg xmlns="http://www.w3.org/2000/svg" shape-rendering="geometricPrecision" text-rendering="geometricPrecision" image-rendering="optimizeQuality" fill-rule="evenodd" clip-rule="evenodd" viewBox="0 0 512 456.079"><path fill="#49BAFF" d="M253.647 83.481c130.392-219.054 509.908 65.493-.512 372.598-514.787-328.94-101.874-598.694.512-372.598z"/><path fill="#42A7E6" d="M344.488 10.579c146.33-39.08 316.839 185.127-65.021 429.133C561.647 215.547 470.392 36.15 344.488 10.579zM121.412.645C170.079-4.2 221.438 18.567 250.748 77.574a199.963 199.963 0 013.538 11.587c10.541 34.29.093 49.643-12.872 50.552-18.136 1.271-20.216-14.851-24.967-27.643C192.689 48.096 158.775 12.621 116.43 1.862a148.78 148.78 0 014.982-1.217z"/><path fill="#7ACDFF" d="M130.558 35.501c-42.657-4.246-87.652 23.898-99.173 66.067-7.868 25.593-.07 37.052 9.607 37.73 13.537.949 15.088-11.084 18.635-20.632 17.732-47.748 43.045-74.226 74.65-82.256a107.173 107.173 0 00-3.719-.909z"/></svg>